{
  "accessors": [
    {
      "bufferView": 2,
      "componentType": 5126,
      "count": 371,
      "max": [
        9.148240089416504,
        44.99909973144531,
        9.148240089416504
      ],
      "min": [
        -9.148240089416504,
        21.152999877929688,
        -9.148240089416504
      ],
      "type": "VEC3"
    },
    {
      "bufferView": 2,
      "byteOffset": 4452,
      "componentType": 5126,
      "count": 371,
      "max": [
        0.9954378008842468,
        1.0,
        0.9954378008842468
      ],
      "min": [
        -0.9954378008842468,
        -1.0,
        -0.9954378008842468
      ],
      "type": "VEC3"
    },
    {
      "bufferView": 1,
      "componentType": 5126,
      "count": 371,
      "max": [
        0.9932420253753662,
        0.994422972202301
      ],
      "min": [
        0.007036739960312843,
        0.006375359836965799
      ],
      "type": "VEC2"
    },
    {
      "bufferView": 0,
      "componentType": 5125,
      "count": 1584,
      "type": "SCALAR"
    },
    {
      "bufferView": 2,
      "byteOffset": 8904,
      "componentType": 5126,
      "count": 28,
      "max": [
        0.8150590062141418,
        21.152999877929688,
        0.8150590062141418
      ],
      "min": [
        -0.8150590062141418,
        -1.1920900533368695e-06,
        -0.8150590062141418
      ],
      "type": "VEC3"
    },
    {
      "bufferView": 2,
      "byteOffset": 9240,
      "componentType": 5126,
      "count": 28,
      "max": [
        0.9980854988098145,
        0.0,
        0.9980854988098145
      ],
      "min": [
        -0.9980854988098145,
        -1.0,
        -0.9980854988098145
      ],
      "type": "VEC3"
    },
    {
      "bufferView": 1,
      "byteOffset": 2968,
      "componentType": 5126,
      "count": 28,
      "max": [
        0.11129599809646606,
        0.9908300042152405
      ],
      "min": [
        0.00582608999684453,
        0.5813969969749451
      ],
      "type": "VEC2"
    },
    {
      "bufferView": 0,
      "byteOffset": 6336,
      "componentType": 5125,
      "count": 120,
      "type": "SCALAR"
    },
    {
      "bufferView": 2,
      "byteOffset": 9576,
      "componentType": 5126,
      "count": 24,
      "max": [
        2.16117000579834,
        31.829669952392578,
        0.4022601544857025
      ],
      "min": [
        -2.16117000579834,
        27.5073299407959,
        -3.9200799465179443
      ],
      "type": "VEC3"
    },
    {
      "bufferView": 2,
      "byteOffset": 9864,
      "componentType": 5126,
      "count": 24,
      "max": [
        1.0,
        1.0,
        1.0
      ],
      "min": [
        -1.0,
        -1.0,
        -1.0
      ],
      "type": "VEC3"
    },
    {
      "bufferView": 1,
      "byteOffset": 3192,
      "componentType": 5126,
      "count": 24,
      "max": [
        0.875,
        1.0
      ],
      "min": [
        0.125,
        0.0
      ],
      "type": "VEC2"
    },
    {
      "bufferView": 0,
      "byteOffset": 6816,
      "componentType": 5125,
      "count": 36,
      "type": "SCALAR"
    },
    {
      "bufferView": 2,
      "byteOffset": 10152,
      "componentType": 5126,
      "count": 24,
      "max": [
        2.16117000579834,
        31.829669952392578,
        0.4022601544857025
      ],
      "min": [
        -2.16117000579834,
        27.5073299407959,
        -3.9200799465179443
      ],
      "type": "VEC3"
    },
    {
      "bufferView": 2,
      "byteOffset": 10440,
      "componentType": 5126,
      "count": 24,
      "max": [
        1.0,
        1.0,
        1.0
      ],
      "min": [
        -1.0,
        -1.0,
        -1.0
      ],
      "type": "VEC3"
    },
    {
      "bufferView": 1,
      "byteOffset": 3384,
      "componentType": 5126,
      "count": 24,
      "max": [
        0.875,
        1.0
      ],
      "min": [
        0.125,
        0.0
      ],
      "type": "VEC2"
    },
    {
      "bufferView": 0,
      "byteOffset": 6960,
      "componentType": 5125,
      "count": 36,
      "type": "SCALAR"
    },
    {
      "bufferView": 2,
      "byteOffset": 10728,
      "componentType": 5126,
      "count": 28,
      "max": [
        0.8150590062141418,
        21.152999877929688,
        0.8150590062141418
      ],
      "min": [
        -0.8150590062141418,
        -1.1920900533368695e-06,
        -0.8150590062141418
      ],
      "type": "VEC3"
    },
    {
      "bufferView": 2,
      "byteOffset": 11064,
      "componentType": 5126,
      "count": 28,
      "max": [
        0.9980854988098145,
        0.0,
        0.9980854988098145
      ],
      "min": [
        -0.9980854988098145,
        -1.0,
        -0.9980854988098145
      ],
      "type": "VEC3"
    },
    {
      "bufferView": 1,
      "byteOffset": 3576,
      "componentType": 5126,
      "count": 28,
      "max": [
        0.11129599809646606,
        0.9908300042152405
      ],
      "min": [
        0.00582608999684453,
        0.5813969969749451
      ],
      "type": "VEC2"
    },
    {
      "bufferView": 0,
      "byteOffset": 7104,
      "componentType": 5125,
      "count": 120,
      "type": "SCALAR"
    },
    {
      "bufferView": 2,
      "byteOffset": 11400,
      "componentType": 5126,
      "count": 371,
      "max": [
        9.148240089416504,
        44.99909973144531,
        9.148240089416504
      ],
      "min": [
        -9.148240089416504,
        21.152999877929688,
        -9.148240089416504
      ],
      "type": "VEC3"
    },
    {
      "bufferView": 2,
      "byteOffset": 15852,
      "componentType": 5126,
      "count": 371,
      "max": [
        0.9954378008842468,
        1.0,
        0.9954378008842468
      ],
      "min": [
        -0.9954378008842468,
        -1.0,
        -0.9954378008842468
      ],
      "type": "VEC3"
    },
    {
      "bufferView": 1,
      "byteOffset": 3800,
      "componentType": 5126,
      "count": 371,
      "max": [
        0.9932420253753662,
        0.994422972202301
      ],
      "min": [
        0.007036739960312843,
        0.006375359836965799
      ],
      "type": "VEC2"
    },
    {
      "bufferView": 0,
      "byteOffset": 7584,
      "componentType": 5125,
      "count": 1584,
      "type": "SCALAR"
    }
  ],
  "asset": {
    "extras": {
      "author": "Starlight_lambda64 (https://sketchfab.com/Starlight_lambda64)",
      "license": "SKETCHFAB Standard (https://sketchfab.com/licenses)",
      "source": "https://sketchfab.com/3d-models/paper-mario-sticker-star-thumbtack-6ee3f284a77c40fa81f2f88af03aafd1",
      "title": "[Paper Mario: Sticker Star] Thumbtack"
    },
    "generator": "Sketchfab-16.71.0",
    "version": "2.0"
  },
  "bufferViews": [
    {
      "buffer": 0,
      "byteLength": 13920,
      "name": "floatBufferViews",
      "target": 34963
    },
    {
      "buffer": 0,
      "byteLength": 6768,
      "byteOffset": 13920,
      "byteStride": 8,
      "name": "floatBufferViews",
      "target": 34962
    },
    {
      "buffer": 0,
      "byteLength": 20304,
      "byteOffset": 20688,
      "byteStride": 12,
      "name": "floatBufferViews",
      "target": 34962
    }
  ],
  "buffers": [
    {
      "byteLength": 40992,
      "uri": "scene.bin"
    }
  ],
  "images": [
    {
      "uri": "textures/mThumbtack_mat_baseColor.png"
    }
  ],
  "materials": [
    {
      "doubleSided": true,
      "name": "mThumbtack_mat",
      "pbrMetallicRoughness": {
        "baseColorTexture": {
          "index": 0
        },
        "metallicFactor": 0.0,
        "roughnessFactor": 0.6
      }
    },
    {
      "doubleSided": true,
      "name": "mThumbtack_metal_mat",
      "pbrMetallicRoughness": {
        "baseColorTexture": {
          "index": 0
        },
        "metallicFactor": 0.0,
        "roughnessFactor": 0.6
      }
    },
    {
      "doubleSided": true,
      "name": "mThumbtack_mat_0",
      "pbrMetallicRoughness": {
        "baseColorTexture": {
          "index": 0
        },
        "metallicFactor": 0.0,
        "roughnessFactor": 0.6
      }
    }
  ],
  "meshes": [
    {
      "name": "Object_0",
      "primitives": [
        {
          "attributes": {
            "NORMAL": 1,
            "POSITION": 0,
            "TEXCOORD_0": 2
          },
          "indices": 3,
          "material": 0,
          "mode": 4
        }
      ]
    },
    {
      "name": "Object_1",
      "primitives": [
        {
          "attributes": {
            "NORMAL": 5,
            "POSITION": 4,
            "TEXCOORD_0": 6
          },
          "indices": 7,
          "material": 1,
          "mode": 4
        }
      ]
    },
    {
      "name": "Object_2",
      "primitives": [
        {
          "attributes": {
            "NORMAL": 9,
            "POSITION": 8,
            "TEXCOORD_0": 10
          },
          "indices": 11,
          "material": 2,
          "mode": 4
        }
      ]
    },
    {
      "name": "Object_3",
      "primitives": [
        {
          "attributes": {
            "NORMAL": 13,
            "POSITION": 12,
            "TEXCOORD_0": 14
          },
          "indices": 15,
          "material": 2,
          "mode": 4
        }
      ]
    },
    {
      "name": "Object_4",
      "primitives": [
        {
          "attributes": {
            "NORMAL": 17,
            "POSITION": 16,
            "TEXCOORD_0": 18
          },
          "indices": 19,
          "material": 1,
          "mode": 4
        }
      ]
    },
    {
      "name": "Object_5",
      "primitives": [
        {
          "attributes": {
            "NORMAL": 21,
            "POSITION": 20,
            "TEXCOORD_0": 22
          },
          "indices": 23,
          "material": 0,
          "mode": 4
        }
      ]
    }
  ],
  "nodes": [
    {
      "children": [
        1
      ],
      "matrix": [
        1.0,
        0.0,
        0.0,
        0.0,
        0.0,
        2.220446049250313e-16,
        -1.0,
        0.0,
        0.0,
        1.0,
        2.220446049250313e-16,
        0.0,
        0.0,
        0.0,
        0.0,
        1.0
      ],
      "name": "Sketchfab_model"
    },
    {
      "children": [
        2
      ],
      "matrix": [
        1.0,
        0.0,
        0.0,
        0.0,
        0.0,
        -4.371139006309477e-08,
        0.999999999999999,
        0.0,
        0.0,
        -0.999999999999999,
        -4.371139006309477e-08,
        0.0,
        0.0,
        0.0,
        0.0,
        1.0
      ],
      "name": "Collada visual scene group"
    },
    {
      "children": [
        3,
        4,
        5,
        6,
        7,
        8
      ],
      "name": "Object_2"
    },
    {
      "mesh": 0,
      "name": "Object_3"
    },
    {
      "mesh": 1,
      "name": "Object_4"
    },
    {
      "mesh": 2,
      "name": "Object_5"
    },
    {
      "mesh": 3,
      "name": "Object_6"
    },
    {
      "mesh": 4,
      "name": "Object_7"
    },
    {
      "mesh": 5,
      "name": "Object_8"
    }
  ],
  "samplers": [
    {
      "magFilter": 9729,
      "minFilter": 9987,
      "wrapS": 10497,
      "wrapT": 10497
    }
  ],
  "scene": 0,
  "scenes": [
    {
      "name": "Sketchfab_Scene",
      "nodes": [
        0
      ]
    }
  ],
  "textures": [
    {
      "sampler": 0,
      "source": 0
    }
  ]
}
